<?xml version="1.0" encoding="UTF-8"?>
<!DOCTYPE svg PUBLIC "-//W3C//DTD SVG 1.1//EN" "http://www.w3.org/Graphics/SVG/1.1/DTD/svg11.dtd">
<!-- Creator: CorelDRAW -->
<svg xmlns="http://www.w3.org/2000/svg" xml:space="preserve" width="121.2mm" height="38.7465mm" version="1.1" style="shape-rendering:geometricPrecision; text-rendering:geometricPrecision; image-rendering:optimizeQuality; fill-rule:evenodd; clip-rule:evenodd"
viewBox="0 0 25596.09 8182.83"
 xmlns:xlink="http://www.w3.org/1999/xlink"
 xmlns:xodm="http://www.corel.com/coreldraw/odm/2003">
 <defs>
  <style type="text/css">
   <![CDATA[
    .fil0 {fill:white}
    .fil1 {fill:white;fill-rule:nonzero}
   ]]>
  </style>
 </defs>
 <g id="Слой_x0020_1">
  <metadata id="CorelCorpID_0Corel-Layer"/>
  <g id="_2714808265376">
   <polygon class="fil0" points="-0,1935.5 4392.98,1935.5 5979.39,4091.49 6621.07,4091.49 4981.16,1935.5 8686.43,1935.5 8686.43,6247.47 4281.49,6247.47 2695.07,4091.49 2053.39,4091.49 3693.29,6247.47 -0,6247.47 "/>
   <rect class="fil0" x="1304.88" y="0.01" width="6123.76" height="1451.63"/>
   <rect class="fil0" x="1304.88" y="6731.21" width="6123.76" height="1451.63"/>
  </g>
  <g id="_2714808280064">
   <path class="fil1" d="M11963.99 3805.28l-1255.83 -1791.47c-12.63,-12.61 -23.82,-28.26 -33.96,-47.12 -9.97,-18.82 -18.84,-35.9 -26.34,-50.85 -9.97,-17.61 -18.82,-36.43 -26.31,-56.51l0 1946.13 -659.92 0 0 -2639.97 863.66 0 1255.83 1791.45c10.14,15.1 20.78,31.45 31.97,49.06 11.38,17.61 20.8,33.96 28.26,49.06 9.97,17.61 18.84,36.43 26.34,56.51l0 -1945.96 659.92 0 0 2639.99 -863.66 0 0.04 -0.32z"/>
   <path id="_1" class="fil1" d="M16082.35 2556.95c0,236.26 -29.5,436.25 -88.53,599.63 -59.03,163.4 -147.03,296 -264.01,397.86 -116.98,101.88 -264.03,175.46 -441.24,220.61 -177.23,45.34 -384,67.92 -620.45,67.92 -233.79,0 -438.77,-23.27 -614.73,-69.84 -176,-46.59 -322.51,-120.72 -439.31,-222.59 -116.98,-101.9 -204.98,-234.5 -264.01,-397.86 -59.03,-163.38 -88.72,-362.13 -88.72,-595.91l0 -1391.63 659.92 0 0 1403.01c0,128.15 11.91,237.5 35.9,328.17 23.8,90.47 64.69,164.09 122.49,220.61 57.78,56.51 134.59,97.44 230.07,122.51 95.46,25.07 214.91,37.68 358.22,37.68 143.29,0 262.74,-12.61 358.22,-37.68 95.46,-25.07 172.82,-65.95 231.99,-122.51 59.03,-56.51 101.16,-130.13 126.4,-220.61 25.07,-90.49 37.7,-199.83 37.7,-328.17l0 -1403.01 659.92 0 0 1391.63 0.17 0.19z"/>
   <polygon id="_2" class="fil1" points="18635.58,3805.28 17387.24,2639.97 17176.03,2802.1 17176.03,3805.28 16516.13,3805.28 16516.13,1165.3 17176.03,1165.3 17176.03,2142.19 18450.68,1165.3 19355.94,1165.3 17877.54,2285.46 19552.03,3805.28 "/>
   <path id="_3" class="fil1" d="M22429.52 2556.95c0,236.26 -29.52,436.25 -88.55,599.63 -59.03,163.4 -147.03,296 -264.01,397.86 -116.98,101.88 -264.01,175.46 -441.24,220.61 -177.23,45.34 -384,67.92 -620.45,67.92 -233.76,0 -438.77,-23.27 -614.73,-69.84 -176,-46.59 -322.51,-120.72 -439.29,-222.59 -117,-101.9 -205,-234.5 -264.03,-397.86 -59.03,-163.38 -88.72,-362.13 -88.72,-595.91l0 -1391.63 659.92 0 0 1403.01c0,128.15 11.91,237.5 35.9,328.17 23.82,90.47 64.69,164.09 122.51,220.61 57.76,56.51 134.59,97.44 230.05,122.51 95.46,25.07 214.91,37.68 358.22,37.68 143.29,0 262.76,-12.61 358.22,-37.68 95.46,-25.07 172.82,-65.95 231.99,-122.51 59.03,-56.51 101.16,-130.13 126.42,-220.61 25.07,-90.49 37.68,-199.83 37.68,-328.17l0 -1403.01 659.92 0 0 1391.63 0.19 0.19z"/>
   <path id="_4" class="fil1" d="M25590.02 2998.18c0,188.63 -44.08,338.85 -132.08,450.68 -88,111.8 -200.54,198.01 -337.61,258.31 -137.06,60.27 -288.55,99.91 -454.39,118.73 -165.87,18.84 -326.77,28.26 -482.67,28.26 -160.86,0 -318.58,-8.17 -473.21,-24.52 -154.67,-16.37 -297.27,-52.8 -428.08,-109.35 -130.68,-56.51 -243.9,-138.86 -339.4,-247.11 -95.46,-108.09 -165.87,-252.6 -211.19,-433.78l622.23 -154.67c47.86,163.4 143.99,274.12 288.55,331.9 144.52,57.76 348.8,86.74 612.81,86.74 208.72,0 371.57,-23.27 488.35,-69.84 116.98,-46.59 175.31,-122.51 175.31,-228.08 0,-55.31 -30.24,-98.67 -90.49,-130.13 -60.27,-31.47 -140.06,-55.31 -239.47,-71.66 -99.39,-16.37 -212.46,-29.52 -339.4,-39.64 -126.95,-9.97 -257.06,-23.8 -390.38,-41.41 -133.34,-17.61 -263.31,-41.41 -390.4,-71.66 -126.95,-30.22 -240.16,-73.58 -339.38,-130.13 -99.39,-56.51 -179.19,-130.13 -239.49,-220.63 -60.27,-90.47 -90.47,-203.71 -90.47,-339.38 0,-165.87 40.89,-302.93 122.49,-411.02 81.77,-108.09 186.67,-194.29 314.84,-258.31 128.17,-64.2 270.93,-109.33 428.08,-135.82 157.15,-26.31 311.1,-39.62 462.04,-39.62 158.39,0 311.1,9.44 458.13,28.26 147.03,18.84 282.82,55.31 407.28,109.35 124.43,54.04 234.48,131.36 329.96,231.97 95.46,100.63 172.27,233.79 230.05,399.82l-633.61 154.67c-50.31,-140.8 -145.23,-238.22 -284.81,-292.26 -139.53,-54.04 -312.35,-81.1 -518.6,-81.1 -67.92,0 -138.86,3.74 -213.15,11.38 -74.13,7.62 -142.05,21.33 -203.73,41.41 -61.5,20.08 -113.07,48.34 -154.67,84.81 -41.41,36.43 -62.22,83.55 -62.22,141.5 0,60.29 30.24,106.16 90.47,137.61 60.29,31.45 140.27,56.01 239.49,73.58 99.39,17.61 211.91,31.47 337.61,41.44 125.7,10.14 254.59,23.27 386.48,39.62 132.08,16.35 260.78,38.94 386.67,67.92 125.68,28.98 238.22,71.66 337.59,128.17 99.39,56.51 179.21,130.16 239.49,220.63 60.29,90.47 90.47,204.98 90.47,343.12l0.55 0.25z"/>
   <path class="fil1" d="M12390.09 5478.17c0,123.9 -24.16,234.34 -72.54,331.19 -48.51,96.89 -113.26,177.95 -194.29,243.21 -81.1,65.43 -172.82,115.37 -275.39,150.41 -102.55,34.87 -207.81,52.44 -315.9,52.44l-973.14 0 0 811.01 -591.29 0 0 -2365.31 1554.31 0c114.82,0 224.7,15.82 329.43,47.29 104.71,31.64 197.17,79.47 277.12,143.67 80.02,64.2 143.67,144.71 190.94,241.6 47.31,96.89 70.94,211.72 70.94,344.7l-0.19 -0.19zm-591.29 0c0,-87.81 -28.26,-154.84 -84.45,-201.07 -56.32,-46.23 -127.26,-69.31 -212.79,-69.31l-942.77 0 0 540.6 952.88 0c78.92,0 146.48,-24.16 202.83,-72.54 56.35,-48.51 84.45,-114.32 84.45,-197.69l-0.15 0.02z"/>
   <path id="_1_0" class="fil1" d="M14746.72 7066.44l-547.38 -811.01 -756.96 0 0 811.01 -591.29 0 0 -2365.31 1622.06 0c119.45,0 231.99,16.37 337.94,49.06 105.97,32.71 198.22,81.77 277.14,147.03 78.94,65.43 140.8,146.5 185.76,243.4 45.15,96.91 67.56,209.44 67.56,337.97 0,166.75 -44.96,311.99 -135.12,435.89 -90.11,123.9 -211.72,215.1 -364.96,273.76l598.19 878.57 -692.8 0 -0.15 -0.36zm3.38 -1588.27c0,-87.81 -28.81,-154.84 -86.21,-201.07 -57.42,-46.23 -127.81,-69.31 -211.19,-69.31l-1010.29 0 0 540.6 1020.42 0c78.94,0 146.5,-24.71 202.85,-74.3 56.32,-49.61 84.45,-114.82 84.45,-195.92l-0.04 0z"/>
   <polygon id="_2_1" class="fil1" points="15883.26,7066.44 15883.26,4701.11 16474.54,4701.11 16474.54,7066.44 "/>
   <path id="_3_2" class="fil1" d="M18881.8 7066.44l-1125.15 -1605.14c-11.36,-11.19 -21.33,-25.43 -30.41,-42.32 -9.06,-16.9 -16.9,-32.16 -23.63,-45.7 -9.06,-15.8 -16.9,-32.69 -23.63,-50.66l0 1743.62 -591.29 0 0 -2365.31 773.86 0 1125.15 1605.16c9.08,13.52 18.5,28.09 28.81,43.91 10.14,15.8 18.5,30.41 25.43,43.89 9.06,15.82 16.9,32.71 23.63,50.66l0 -1743.62 591.29 0 0 2365.31 -773.86 0 -0.19 0.21z"/>
   <polygon id="_4_3" class="fil1" points="21670.76,5207.96 21670.76,7066.44 21062.58,7066.44 21062.58,5207.96 20133.35,5207.96 20133.35,4701.11 22599.99,4701.11 22599.99,5207.96 "/>
   <polygon class="fil1" points="23654.04,6161.56 23654.04,7066.44 23357.86,7066.44 23357.86,6161.56 22905.43,6161.56 22905.43,5914.79 24106.51,5914.79 24106.51,6161.56 "/>
   <polygon id="_1_4" class="fil1" points="25308.09,7066.44 25308.09,6217.55 25271.83,6332.58 24993.8,7066.44 24730.68,7066.44 24455.83,6335.96 24417.97,6217.55 24417.97,7066.44 24130.14,7066.44 24130.14,5914.79 24556.28,5914.79 24835.93,6674.81 24863.83,6758.7 24890.14,6674.81 25169.95,5914.79 25596.09,5914.79 25596.09,7066.44 "/>
  </g>
  <g id="_2714808280736">
   <polygon class="fil0" points="-0,1935.5 4392.98,1935.5 5979.39,4091.49 6621.07,4091.49 4981.16,1935.5 8686.43,1935.5 8686.43,6247.47 4281.49,6247.47 2695.07,4091.49 2053.39,4091.49 3693.29,6247.47 -0,6247.47 "/>
   <rect class="fil0" x="1304.88" y="0.01" width="6123.76" height="1451.63"/>
   <rect class="fil0" x="1304.88" y="6731.21" width="6123.76" height="1451.63"/>
  </g>
 </g>
</svg>
