<?xml version="1.0" encoding="UTF-8"?>
<!DOCTYPE svg PUBLIC "-//W3C//DTD SVG 1.1//EN" "http://www.w3.org/Graphics/SVG/1.1/DTD/svg11.dtd">
<!-- Creator: CorelDRAW -->
<svg xmlns="http://www.w3.org/2000/svg" xml:space="preserve" width="41.1311mm" height="38.7465mm" version="1.1" style="shape-rendering:geometricPrecision; text-rendering:geometricPrecision; image-rendering:optimizeQuality; fill-rule:evenodd; clip-rule:evenodd"
viewBox="0 0 2947.87 2776.97"
 xmlns:xlink="http://www.w3.org/1999/xlink"
 xmlns:xodm="http://www.corel.com/coreldraw/odm/2003">
 <defs>
  <style type="text/css">
   <![CDATA[
    .fil0 {fill:white}
   ]]>
  </style>
 </defs>
 <g id="Слой_x0020_1">
  <metadata id="CorelCorpID_0Corel-Layer"/>
  <g id="_2750380328144">
   <polygon class="fil0" points="-0,656.84 1490.83,656.84 2029.2,1388.51 2246.96,1388.51 1690.43,656.84 2947.87,656.84 2947.87,2120.18 1452.99,2120.18 914.61,1388.51 696.85,1388.51 1253.38,2120.18 -0,2120.18 "/>
   <rect class="fil0" x="442.83" y="0" width="2078.19" height="492.63"/>
   <rect class="fil0" x="442.83" y="2284.34" width="2078.19" height="492.63"/>
  </g>
  <g id="_2750380327472">
   <polygon class="fil0" points="-0,656.84 1490.83,656.84 2029.2,1388.51 2246.96,1388.51 1690.43,656.84 2947.87,656.84 2947.87,2120.18 1452.99,2120.18 914.61,1388.51 696.85,1388.51 1253.38,2120.18 -0,2120.18 "/>
   <rect class="fil0" x="442.83" y="0" width="2078.19" height="492.63"/>
   <rect class="fil0" x="442.83" y="2284.34" width="2078.19" height="492.63"/>
  </g>
 </g>
</svg>
